<?xml version="1.0" encoding="UTF-8"?>
<!DOCTYPE svg PUBLIC "-//W3C//DTD SVG 1.1//EN" "http://www.w3.org/Graphics/SVG/1.1/DTD/svg11.dtd">
<svg xmlns="http://www.w3.org/2000/svg" version="1.1" width="52px" height="52px" style="shape-rendering:geometricPrecision; text-rendering:geometricPrecision; image-rendering:optimizeQuality; fill-rule:evenodd; clip-rule:evenodd" xmlns:xlink="http://www.w3.org/1999/xlink">
<g><path style="opacity:1" fill="#f4f4f4" d="M -0.5,-0.5 C 16.8333,-0.5 34.1667,-0.5 51.5,-0.5C 51.5,16.8333 51.5,34.1667 51.5,51.5C 34.1667,51.5 16.8333,51.5 -0.5,51.5C -0.5,34.1667 -0.5,16.8333 -0.5,-0.5 Z"/></g>
<g><path style="opacity:1" fill="#c4c4c4" d="M 24.5,21.5 C 21.8817,19.6694 19.2151,18.1694 16.5,17C 18.6944,19.6947 20.6944,22.528 22.5,25.5C 21.9649,27.261 20.9649,28.5943 19.5,29.5C 21.4115,25.1642 20.2448,21.8309 16,19.5C 14.9914,17.9751 14.4914,16.3084 14.5,14.5C 18.915,15.2426 22.2484,17.5759 24.5,21.5 Z"/></g>
<g><path style="opacity:1" fill="#ababab" d="M 29.5,24.5 C 31.3306,21.8817 32.8306,19.2151 34,16.5C 32.1433,19.1998 29.6433,20.8665 26.5,21.5C 29.1041,19.4 31.6041,17.0666 34,14.5C 34.956,15.5786 35.7894,16.7453 36.5,18C 34.2968,20.3722 31.9635,22.5389 29.5,24.5 Z"/></g>
<g><path style="opacity:1" fill="#636363" d="M 24.5,21.5 C 25.1667,22.8333 25.8333,22.8333 26.5,21.5C 29.6433,20.8665 32.1433,19.1998 34,16.5C 32.8306,19.2151 31.3306,21.8817 29.5,24.5C 28.5675,26.946 29.5675,28.6127 32.5,29.5C 33.3657,31.144 33.8657,32.8107 34,34.5C 31.6721,33.0007 29.5054,31.334 27.5,29.5C 26.3478,28.375 25.3478,28.375 24.5,29.5C 21.9249,30.7284 19.5916,32.3951 17.5,34.5C 17.1667,34.3333 16.8333,34.1667 16.5,34C 17.305,32.8873 17.9717,31.7206 18.5,30.5C 18.5,29.8333 18.8333,29.5 19.5,29.5C 20.9649,28.5943 21.9649,27.261 22.5,25.5C 20.6944,22.528 18.6944,19.6947 16.5,17C 19.2151,18.1694 21.8817,19.6694 24.5,21.5 Z"/></g>
<g><path style="opacity:1" fill="#b2b2b2" d="M 24.5,29.5 C 22.4865,32.3466 19.9865,34.6799 17,36.5C 15.5,36.3333 14.6667,35.5 14.5,34C 15.0717,31.9264 16.405,30.7598 18.5,30.5C 17.9717,31.7206 17.305,32.8873 16.5,34C 16.8333,34.1667 17.1667,34.3333 17.5,34.5C 19.5916,32.3951 21.9249,30.7284 24.5,29.5 Z"/></g>
<g><path style="opacity:1" fill="#c1c1c1" d="M 27.5,29.5 C 29.5054,31.334 31.6721,33.0007 34,34.5C 33.8657,32.8107 33.3657,31.144 32.5,29.5C 35.1119,31.0522 36.4452,33.3855 36.5,36.5C 32.025,36.0213 29.025,33.688 27.5,29.5 Z"/></g>
</svg>
